# xmcd CD database file
#
# Track frame offsets:
#	150
#	13308
#	26434
#	41205
#	57374
#	73600
#	87576
#	100082
#	116331
#	134865
#	149390
#
# Disc length: 2159 seconds
#
# Revision: 0
# Processed by: cddbd v1.5.2PL0 Copyright (c) Steve Scherf et al.
# Submitted via: CDex 1.51
#
DISCID=a3086d0b
DTITLE=Larry "Sundance" Piatt and The Roughriders - Live Wire
DYEAR=2006
DGENRE=Country
TTITLE0=Larry "Sundance" Piatt and The Rough Riders =Live Wire
TTITLE1=Larry "Sundance" Piatt and The Rough Riders =She's Gone,Gone,Long Gone
TTITLE2=Larry "Sundance" Piatt and The Rough Riders =Keep The Farm In The Family
TTITLE3=Larry "Sundance" Piatt and The Rough Riders =She's Sleeping Like A Baby
TTITLE4=Larry "Sundance" Piatt and The Rough Riders =Society
TTITLE5=Larry "Sundance" Piatt and The Rough Riders =Crash And Burn
TTITLE6=Larry "Sundance" Piatt and The Rough Riders =Simple Man
TTITLE7=Larry "Sundance" Piatt and The Rough Riders =My Hoochie Wants To Coochie
TTITLE8=Larry "Sundance" Piatt and The Rough Riders =Day By Day
TTITLE9=Larry "Sundance" Piatt and The Rough Riders =Drinking Problem
TTITLE10=Larry "Sundance" Piatt and The Rough Riders =Get It On, Get It Done
EXTD=YEAR: 2006
EXTT0=
EXTT1=
EXTT2=
EXTT3=
EXTT4=
EXTT5=
EXTT6=
EXTT7=
EXTT8=
EXTT9=
EXTT10=
PLAYORDER=
